<?xml version="1.0" standalone="no"?>
<!DOCTYPE svg PUBLIC "-//W3C//DTD SVG 20010904//EN"
 "http://www.w3.org/TR/2001/REC-SVG-20010904/DTD/svg10.dtd">
<svg version="1.0" xmlns="http://www.w3.org/2000/svg"
 width="512.000000pt" height="512.000000pt" viewBox="0 0 512.000000 512.000000"
 preserveAspectRatio="xMidYMid meet">
<metadata>
Created by potrace 1.14, written by Peter Selinger 2001-2017
</metadata>
<g transform="translate(0.000000,512.000000) scale(0.100000,-0.100000)"
fill="#000000" stroke="none">
<path d="M2674 4227 c-22 -23 -104 -97 -108 -97 -2 0 -9 14 -16 31 -7 17 -17
26 -22 21 -13 -13 -48 -114 -48 -139 0 -27 -18 -40 -26 -19 -12 30 -27 17 -21
-19 3 -21 2 -35 -4 -35 -7 0 -8 -20 -3 -56 5 -41 3 -58 -6 -64 -11 -7 -11 -14
-1 -38 10 -24 10 -35 0 -54 -7 -12 -11 -42 -10 -65 2 -40 0 -43 -25 -43 -27 0
-167 -25 -242 -43 -27 -6 -55 -22 -75 -44 -18 -19 -54 -49 -82 -67 -64 -43
-76 -57 -119 -137 -43 -79 -44 -89 -11 -89 40 0 129 -45 168 -84 37 -36 77
-103 77 -128 0 -7 9 -24 18 -36 l18 -24 31 26 c38 32 43 32 43 1 0 -13 4 -34
9 -47 5 -13 16 -46 25 -73 8 -28 35 -93 59 -145 24 -52 63 -141 87 -198 23
-56 45 -100 48 -98 3 3 10 16 16 28 19 38 133 77 270 95 37 4 65 17 107 48 40
29 65 41 81 38 18 -3 37 11 91 66 74 76 100 87 175 76 156 -23 291 -175 300
-338 4 -68 4 -69 31 -62 41 10 71 34 71 56 0 21 56 142 91 197 16 24 22 53 25
118 2 47 11 102 20 122 9 20 18 71 21 112 8 115 -17 177 -105 260 -78 74 -134
106 -211 120 -66 12 -163 55 -189 84 -11 11 -25 46 -30 76 -11 62 -1 203 19
268 10 31 10 48 3 60 -14 22 4 68 40 101 35 33 33 41 -9 41 -38 0 -47 18 -20
40 23 19 18 30 -12 30 -16 0 -46 5 -67 11 l-39 11 28 22 28 23 -64 7 c-35 4
-88 10 -118 13 -54 6 -54 6 -25 19 27 12 25 12 -41 13 -62 1 -158 -15 -207
-34 -15 -6 -18 -2 -18 24 0 33 -8 38 -26 18z m43 -609 c34 -24 41 -42 22 -54
-24 -14 -88 43 -74 66 9 14 15 13 52 -12z m363 6 c0 -24 -41 -57 -54 -44 -6 6
-2 18 14 35 27 29 40 32 40 9z m-323 -241 c67 -25 239 -25 276 0 39 26 36 -4
-4 -37 -23 -19 -26 -26 -13 -26 16 0 16 -1 0 -19 -13 -14 -37 -19 -123 -24
-110 -6 -128 -2 -170 36 -27 25 -29 36 -5 32 9 -1 11 0 5 2 -7 3 -13 9 -13 14
0 5 -6 9 -14 9 -7 0 -19 7 -26 15 -11 13 -8 15 13 15 15 0 48 -8 74 -17z"/>
<path d="M2758 3323 c6 -2 18 -2 25 0 6 3 1 5 -13 5 -14 0 -19 -2 -12 -5z"/>
<path d="M2835 3310 c-4 -6 23 -10 74 -10 47 0 81 4 81 10 0 6 -31 10 -74 10
-41 0 -78 -4 -81 -10z"/>
<path d="M562 4120 c-19 -18 -29 -53 -23 -84 1 -5 6 -37 11 -70 13 -89 25
-145 42 -196 9 -25 23 -72 32 -105 45 -158 90 -286 114 -328 30 -53 115 -122
265 -219 54 -35 122 -79 152 -98 29 -19 90 -57 134 -85 157 -96 163 -101 155
-140 -3 -19 -3 -35 1 -35 14 0 90 23 98 30 12 11 -161 140 -187 140 -4 0 -35
19 -69 42 -34 24 -69 47 -78 53 -183 111 -406 272 -432 311 -24 35 -66 143
-59 148 8 5 94 -19 121 -33 8 -4 22 -32 31 -61 19 -60 52 -100 108 -130 21
-10 48 -29 62 -42 32 -29 97 -78 105 -78 3 0 24 -11 48 -26 42 -25 25 -7 -28
31 -15 11 -44 34 -64 51 -20 17 -58 46 -86 64 -71 47 -104 80 -121 119 -19 45
-18 91 1 91 8 0 15 -6 15 -13 0 -8 13 -40 30 -73 34 -68 61 -89 408 -312 262
-168 247 -161 275 -134 l21 22 -31 0 c-21 0 -60 19 -119 58 -49 32 -134 86
-189 121 -189 119 -280 187 -317 236 -40 53 -43 62 -63 215 -8 58 -19 139 -24
180 -12 87 -35 193 -49 231 -17 44 -74 100 -120 120 -60 26 -142 25 -170 -1z
m127 -20 c54 -15 99 -52 121 -97 23 -50 26 -106 6 -122 -12 -10 -16 -2 -26 46
-12 64 -28 108 -36 101 -4 -5 2 -41 21 -125 7 -28 -13 -30 -82 -7 -98 32 -102
35 -113 87 -17 79 -12 107 20 120 23 9 52 8 89 -3z"/>
<path d="M1764 3228 c-12 -13 -36 -45 -54 -71 -18 -27 -45 -54 -61 -61 -16 -7
-42 -33 -59 -59 l-29 -47 72 1 c88 1 146 -26 190 -87 34 -49 48 -114 23 -114
-9 0 -16 8 -16 20 0 23 -20 70 -30 70 -7 0 -34 -80 -28 -84 19 -14 189 -124
208 -134 14 -7 32 -19 40 -26 8 -7 62 -41 120 -76 58 -35 117 -74 132 -88 15
-13 35 -30 46 -36 11 -6 28 -16 39 -23 21 -13 46 -4 35 12 -11 16 -111 87
-189 135 -40 25 -129 81 -198 126 l-126 81 40 13 c23 7 44 23 52 37 17 32 97
103 115 103 8 0 14 6 15 13 2 28 -3 73 -11 82 -4 6 -11 21 -15 35 -22 70 -116
162 -184 179 -89 24 -105 23 -127 -1z"/>
<path d="M1647 2923 c-41 -43 -67 -106 -67 -164 0 -79 59 -67 135 27 79 98 84
124 25 154 -21 11 -43 20 -48 20 -4 0 -24 -17 -45 -37z"/>
<path d="M2020 2770 c-18 -23 -31 -42 -29 -43 48 -34 63 -37 164 -37 102 0
105 1 105 23 -1 12 -9 38 -18 57 l-17 35 -86 3 -87 3 -32 -41z"/>
<path d="M3018 2715 c-63 -57 -88 -74 -104 -70 -15 3 -37 -8 -73 -36 l-52 -42
68 -62 c84 -77 120 -139 135 -239 l13 -76 35 6 c114 20 145 31 148 50 2 14 16
24 50 33 204 56 199 53 213 105 35 129 -61 304 -204 374 -41 20 -80 32 -105
32 -37 0 -49 -7 -124 -75z"/>
<path d="M1255 2750 c-33 -4 -98 -8 -145 -9 -58 -1 -92 -6 -107 -16 -11 -8
-35 -50 -53 -92 -17 -43 -39 -96 -49 -118 -10 -22 -21 -53 -25 -69 -4 -15 -16
-49 -28 -75 -11 -25 -27 -62 -35 -81 -8 -19 -18 -43 -23 -52 -6 -10 -10 -26
-10 -36 0 -16 9 -17 106 -14 l107 4 -7 -63 c-24 -230 -78 -1141 -68 -1151 9
-9 491 20 510 31 8 5 58 69 111 142 l96 134 70 7 c39 3 149 11 245 17 96 6
200 14 231 17 l56 6 42 73 c34 60 47 75 72 80 17 4 33 4 37 0 4 -3 12 -36 17
-73 l10 -67 55 0 c50 1 139 7 520 35 96 7 127 12 136 25 11 14 20 15 75 5 35
-6 83 -9 107 -5 46 7 151 14 576 40 136 8 270 18 298 21 55 7 55 7 84 109 9
33 23 83 31 110 8 28 19 68 25 90 6 22 14 49 18 60 4 11 16 47 25 80 34 121
69 233 85 270 11 27 71 236 73 255 2 18 -3 18 -248 1 -99 -6 -281 -18 -405
-26 -363 -22 -376 -25 -401 -84 -15 -36 -20 -39 -96 -60 -44 -11 -88 -21 -99
-21 -24 0 -44 -18 -44 -40 0 -13 -17 -20 -72 -29 -75 -14 -160 -34 -190 -46
-27 -11 -7 -37 63 -84 34 -23 64 -41 67 -41 3 0 13 -7 22 -15 22 -20 30 -9 54
68 23 78 69 126 156 166 80 37 160 47 615 76 273 17 372 19 378 8 2 -5 -5 -37
-17 -73 l-21 -65 -75 -7 c-41 -3 -158 -11 -260 -17 -102 -6 -209 -16 -238 -22
-77 -15 -114 -55 -142 -150 -11 -41 -25 -85 -30 -99 -19 -51 -23 -101 -10
-125 16 -31 58 -37 180 -27 l94 7 17 55 c9 30 15 58 12 63 -2 4 -22 7 -44 7
-45 0 -46 2 -20 85 22 71 16 69 206 80 220 14 271 13 266 -5 -12 -50 -22 -84
-46 -160 -14 -47 -36 -123 -48 -170 l-23 -85 -44 -7 c-25 -4 -128 -12 -230
-18 -102 -6 -243 -16 -315 -22 -202 -17 -364 -16 -400 2 -46 24 -78 78 -70
120 13 66 11 84 -9 88 -10 2 -40 17 -66 33 -26 16 -49 29 -52 29 -5 0 1 -47
23 -180 6 -41 12 -86 13 -100 l1 -25 -155 -11 c-289 -23 -285 -23 -288 6 -1
14 -5 44 -8 67 l-5 43 -72 -5 c-93 -7 -192 -14 -194 -14 0 -1 -19 -30 -42 -65
-22 -35 -44 -67 -48 -69 -8 -5 -196 -22 -350 -32 -76 -5 -93 -3 -93 8 0 8 7
21 16 28 20 17 132 168 203 274 48 71 117 165 223 302 18 23 46 63 61 88 18
28 36 45 48 45 36 0 18 42 -32 74 l-27 17 -48 -58 c-27 -32 -51 -60 -54 -63
-4 -3 -27 -36 -52 -75 -53 -80 -235 -333 -299 -415 -83 -106 -189 -250 -207
-279 -25 -42 -162 -230 -173 -237 -16 -10 -303 -24 -312 -15 -5 5 -4 66 2 142
6 74 18 258 26 409 9 151 20 327 25 392 6 64 10 146 10 184 l0 67 -69 -7 c-39
-3 -72 -3 -75 2 -4 7 89 252 107 280 5 7 29 12 55 12 94 0 262 23 253 34 -5 6
-13 31 -18 56 -10 51 -18 54 -128 40z"/>
<path d="M1475 2736 c-56 -56 26 -119 112 -85 26 10 27 12 8 19 -28 10 -42 30
-47 60 -4 35 -41 38 -73 6z"/>
<path d="M1682 2683 c-23 -23 -52 -43 -63 -43 -14 0 -19 -5 -17 -17 2 -13 14
-19 40 -21 32 -3 44 3 80 36 39 37 41 42 30 66 -6 14 -15 25 -19 24 -5 0 -27
-21 -51 -45z"/>
<path d="M1780 2688 c-1 -36 -12 -55 -50 -81 l-24 -17 34 0 c39 1 61 14 79 48
15 28 6 58 -20 72 -17 10 -19 7 -19 -22z"/>
<path d="M1830 2606 c0 -9 31 -36 73 -62 39 -26 95 -63 122 -84 28 -21 70 -49
95 -62 25 -14 80 -47 123 -73 57 -35 81 -45 89 -37 8 8 -18 29 -98 80 -60 39
-135 87 -167 108 -32 22 -66 44 -75 49 -9 6 -44 27 -76 49 -75 48 -86 52 -86
32z"/>
<path d="M2695 2553 c-59 -6 -163 -35 -194 -54 -40 -24 -39 -46 5 -106 85
-112 169 -183 243 -203 45 -12 65 -8 169 32 l53 21 -6 50 c-8 56 -23 84 -80
152 -72 84 -125 114 -190 108z"/>
<path d="M1624 2448 c-30 -83 -36 -88 -109 -88 -80 -1 -81 -2 -88 -93 -4 -45
-11 -136 -17 -202 -6 -66 -17 -201 -25 -300 -8 -99 -17 -197 -21 -217 -4 -22
-3 -38 3 -38 9 0 147 185 170 227 6 12 58 85 115 162 56 78 135 186 173 241
39 55 94 134 124 176 l53 75 -68 -2 c-76 -2 -72 -8 -58 71 8 51 -18 63 -132
64 l-92 1 -28 -77z m106 -210 c0 -6 -18 -35 -40 -64 -22 -29 -40 -56 -40 -59
0 -8 -110 -164 -121 -170 -9 -6 -2 194 10 255 l7 35 84 6 c47 3 88 6 93 7 4 1
7 -3 7 -10z"/>
<path d="M2409 2393 c-14 -16 -31 -41 -37 -56 -26 -60 -8 -151 37 -191 21 -19
21 -19 21 10 0 33 20 84 34 84 4 0 4 -8 0 -17 -16 -34 -9 -118 14 -155 19 -31
95 -79 107 -67 2 3 0 22 -5 44 -11 46 -4 117 16 160 14 31 14 31 -46 93 -33
34 -67 76 -75 92 -19 37 -34 38 -66 3z"/>
<path d="M2619 2204 c-9 -11 -13 -45 -14 -101 0 -83 1 -85 33 -114 37 -33 76
-37 129 -13 l34 17 -26 27 -26 27 18 39 c21 46 33 56 49 43 21 -17 164 39 164
65 0 19 -11 27 -24 18 -6 -5 -45 -21 -87 -35 -70 -24 -78 -25 -120 -13 -24 8
-60 23 -80 35 -33 20 -37 20 -50 5z"/>
<path d="M2368 2134 c-9 -9 13 -67 31 -81 18 -14 61 -17 61 -5 0 13 -86 93
-92 86z"/>
<path d="M2860 2095 c0 -8 15 -22 33 -31 58 -30 217 -137 217 -146 0 -5 -7
-11 -15 -14 -8 -4 -15 -15 -15 -25 0 -28 -16 -24 -94 25 -111 68 -155 90 -163
82 -14 -14 14 -39 87 -78 41 -22 82 -45 90 -52 8 -7 34 -24 58 -36 l42 -24 28
21 c15 11 31 31 36 45 18 51 2 69 -139 161 -135 87 -165 100 -165 72z"/>
<path d="M2415 1886 c-30 -47 -55 -90 -55 -96 0 -11 91 -14 128 -4 20 6 22 12
21 68 -1 71 -10 108 -27 114 -6 2 -36 -35 -67 -82z"/>
</g>
</svg>
